<?xml version="1.0" encoding="UTF-8" standalone="no" ?>
<!DOCTYPE svg PUBLIC "-//W3C//DTD SVG 1.1//EN" "http://www.w3.org/Graphics/SVG/1.1/DTD/svg11.dtd">
<svg xmlns="http://www.w3.org/2000/svg" xmlns:xlink="http://www.w3.org/1999/xlink" version="1.1" width="1080" height="1080" viewBox="0 0 1080 1080" xml:space="preserve">
<desc>Created with Fabric.js 5.2.4</desc>
<defs>
</defs>
<g transform="matrix(1 0 0 1 540 540)" id="5470ba32-7d69-48ca-816d-c69ae9c08fce"  >
<rect style="stroke: none; stroke-width: 1; stroke-dasharray: none; stroke-linecap: butt; stroke-dashoffset: 0; stroke-linejoin: miter; stroke-miterlimit: 4; fill: rgb(255,255,255); fill-rule: nonzero; opacity: 1; visibility: hidden;" vector-effect="non-scaling-stroke"  x="-540" y="-540" rx="0" ry="0" width="1080" height="1080" />
</g>
<g transform="matrix(1 0 0 1 540 540)" id="b93a76d4-a547-4443-b8ce-88cd0a22a039"  >
</g>
<g transform="matrix(67.5 0 0 67.5 540 540)" id="Combined-Shape"  >
<path style="stroke: none; stroke-width: 1; stroke-dasharray: none; stroke-linecap: butt; stroke-dashoffset: 0; stroke-linejoin: miter; stroke-miterlimit: 4; fill: rgb(0,114,225); fill-rule: evenodd; opacity: 1;"  transform=" translate(-8, -8)" d="M 8 0 C 12.418278 0 16 3.581722 16 8 C 16 12.418278 12.418278 16 8 16 C 3.581722 16 0 12.418278 0 8 C 0 3.581722 3.581722 0 8 0 Z M 4.7148049 10.4574094 L 3.5000261 10.4574094 L 3.43489131 10.5695909 L 3.55877293 10.775409 L 3.69910395 10.9853534 C 4.52149548 12.1532926 5.80025309 12.9473797 7.24289662 13.1543107 L 7.24289662 13.1543107 L 7.417 13.175 L 7.41776213 14.0000003 L 7.49276213 14.075 L 8.50723787 14.075 L 8.58223787 14.0000003 L 8.582 13.175 L 8.75710338 13.1543107 C 10.3650033 12.9236755 11.7693202 11.9636609 12.5651087 10.5695909 L 12.5651087 10.5695909 L 12.4999739 10.4574094 L 11.2851951 10.4574094 L 11.1261854 10.6418856 C 10.3110127 11.5390074 9.19866363 12.0542776 8 12.0542776 C 6.72142546 12.0542776 5.54105767 11.4680146 4.77390274 10.486231 L 4.77390274 10.486231 L 4.7148049 10.4574094 Z M 8.1882916 5.165 C 7.75925997 5.165 7.36609171 5.23460158 7.00922497 5.3740383 C 6.65207912 5.51358406 6.34466779 5.70936118 6.08758886 5.96122864 C 5.83052372 6.21308257 5.63038589 6.51261384 5.48740233 6.85924465 C 5.34440425 7.20591066 5.273 7.58572317 5.273 7.99814641 C 5.273 8.40205542 5.33531141 8.7770566 5.46009788 9.12278931 C 5.58520744 9.46941719 5.76497165 9.76973103 5.9992775 10.0231397 C 6.23392956 10.2769229 6.51975445 10.4757869 6.85608808 10.6195109 C 7.19255599 10.7632924 7.57219215 10.835 7.99446593 10.835 C 8.45409973 10.835 8.85380356 10.7608189 9.19316546 10.6118007 C 9.47713315 10.4871067 9.72176723 10.311944 9.92646936 10.0866602 L 9.92646936 10.0866602 L 10.0424463 9.94803869 L 9.53965735 9.32540569 L 9.49135873 9.2847199 L 9.43422211 9.2531747 L 9.36943627 9.23391794 L 9.31024406 9.22807589 C 9.26203386 9.22807589 9.21528357 9.23849753 9.17070685 9.25908154 C 9.1300042 9.27787663 9.09218385 9.30174773 9.05737661 9.33059633 C 8.98498695 9.39297502 8.91465686 9.44411374 8.84534364 9.48500858 C 8.77652876 9.52560941 8.70424919 9.55865436 8.62842747 9.58417781 C 8.55272969 9.60965954 8.47020545 9.62770469 8.38079937 9.63823479 C 8.28942845 9.6489963 8.18796606 9.65440228 8.0764691 9.65440228 C 7.88796522 9.65440228 7.71189497 9.61821193 7.54758805 9.54584237 C 7.38361085 9.47361803 7.24020696 9.36824977 7.11685163 9.22920585 C 6.99309113 9.08970523 6.89478575 8.91713206 6.82210676 8.71094343 C 6.74929102 8.50436685 6.71268621 8.26683176 6.71268621 7.99814641 C 6.71268621 7.74196729 6.74923311 7.51195852 6.82201551 7.30784988 C 6.89458173 7.10434748 6.99518691 6.9318926 7.12379091 6.78990521 C 7.25189763 6.64846685 7.40507788 6.5398964 7.58398445 6.46380555 C 7.76328645 6.38754651 7.96204491 6.3493049 8.18083677 6.3493049 C 8.30785283 6.3493049 8.41790762 6.35877149 8.51081286 6.37748562 C 8.60499144 6.39645624 8.68665449 6.41940966 8.75570245 6.44618057 C 8.8248282 6.47298164 8.88400099 6.50183047 8.93318584 6.53254636 L 8.93318584 6.53254636 L 9.14844105 6.66627629 L 9.21348283 6.70105673 C 9.26363785 6.72599813 9.31731474 6.73855944 9.37361014 6.73855944 C 9.45589753 6.73855944 9.52385165 6.72005394 9.57563756 6.6805669 L 9.57563756 6.6805669 L 9.63129319 6.63280253 L 9.68276357 6.57663025 L 10.1120241 6.00416197 L 9.99724597 5.8020595 L 9.87450442 5.69992512 L 9.74320413 5.60576208 C 9.60716293 5.51513471 9.45848472 5.43737484 9.29725055 5.37246759 C 9.13627794 5.30766565 8.96344762 5.25692255 8.77880942 5.22019533 C 8.59370066 5.18337452 8.39684859 5.165 8.1882916 5.165 Z M 8.50723787 1.925 L 7.49276213 1.925 L 7.41776213 1.99999933 L 7.417 2.87 L 7.24288927 2.89131769 C 5.63497388 3.12195748 4.23064688 4.08199073 3.43486483 5.47608272 L 3.43486483 5.47608272 L 3.5 5.58826348 L 4.71476931 5.58826348 L 4.87377902 5.40378234 C 5.68895269 4.5066363 6.8013175 3.99134981 8 3.99134981 C 9.27859467 3.99134981 10.458979 4.57763132 11.2261322 5.55944106 L 11.2261322 5.55944106 L 12.5 5.58826348 L 12.5651352 5.47608272 L 12.4412544 5.27026128 L 12.300924 5.06031356 C 11.4785353 3.89235534 10.1997681 3.09825283 8.75711073 2.89131769 L 8.75711073 2.89131769 L 8.582 2.87 L 8.58223787 1.99999933 L 8.50723787 1.925 Z" stroke-linecap="round" />
</g>
</svg>